<svg xmlns="http://www.w3.org/2000/svg" xmlns:xlink="http://www.w3.org/1999/xlink" width="41" height="38" viewBox="0 0 41 38">
    <defs>
        <path id="a" d="M53 39.6l-14.316-9v-9.9c0-1.494-1.199-2.7-2.684-2.7a2.689 2.689 0 0 0-2.684 2.7v9.9L19 39.6v3.6l14.316-4.5v9.9l-3.58 2.7V54L36 52.2l6.263 1.8v-2.7l-3.579-2.7v-9.9L53 43.2v-3.6z"/>
    </defs>
    <g fill="none" fill-rule="evenodd">
        <path fill="none" d="M57-17v72h-72v-72z"/>
        <g transform="rotate(90 37 20)">
            <use fill="#ED1B31" xlink:href="#a"/>
            <path stroke="#FFF" stroke-width="1.95" d="M39.66 30.061V20.7A3.664 3.664 0 0 0 36 17.025a3.664 3.664 0 0 0-3.66 3.675v9.361l-13.859 8.714-.456.286v5.468l1.267-.399 13.049-4.101v8.085l-3.191 2.408-.388.292v4.481l1.244-.358L36 53.214l5.994 1.723 1.244.358v-4.481l-.388-.292-3.19-2.408V40.03l13.048 4.101 1.267.399V39.06l-.456-.286-13.86-8.714z"/>
        </g>
    </g>
</svg>
