<?xml version="1.0" encoding="utf-8"?>
<!-- Generator: Adobe Illustrator 15.1.0, SVG Export Plug-In  -->
<!DOCTYPE svg PUBLIC "-//W3C//DTD SVG 1.1//EN" "http://www.w3.org/Graphics/SVG/1.1/DTD/svg11.dtd" [
	<!ENTITY ns_flows "http://ns.adobe.com/Flows/1.0/">
]>
<svg version="1.1"
	 xmlns="http://www.w3.org/2000/svg" xmlns:xlink="http://www.w3.org/1999/xlink" xmlns:a="http://ns.adobe.com/AdobeSVGViewerExtensions/3.0/"
	 x="0px" y="0px" width="360px" height="360px" viewBox="-47.552 -1.535 360 360"
	 overflow="visible" enable-background="new -47.552 -1.535 360 360" xml:space="preserve">
<defs>
</defs>
<path fill="#01426A" d="M133.632,0C59.875,0,0,59.229,0,133.632c0,78.018,66.826,157.693,115.612,213.834
	c0.123,0.261,7.98,9.026,17.637,9.026c0,0,0.769,0,0.906,0c9.64,0,17.497-8.766,17.637-9.026
	c48.786-56,115.595-135.816,115.595-213.834C267.265,59.229,207.39,0,133.632,0z M66.826,130.804
	c0-36.827,29.998-66.826,66.806-66.826c36.81,0,66.809,29.999,66.809,66.826c0,36.826-29.999,66.824-66.809,66.824
	C96.823,197.628,66.826,167.63,66.826,130.804z"/>
</svg>
