<?xml version="1.0" encoding="utf-8"?>
<!-- Generator: Adobe Illustrator 15.1.0, SVG Export Plug-In . SVG Version: 6.00 Build 0)  -->
<!DOCTYPE svg PUBLIC "-//W3C//DTD SVG 1.1//EN" "http://www.w3.org/Graphics/SVG/1.1/DTD/svg11.dtd">
<svg version="1.1" id="Layer_1" xmlns="http://www.w3.org/2000/svg" xmlns:xlink="http://www.w3.org/1999/xlink" x="0px" y="0px"
	 width="360px" height="360px" viewBox="0 0 360 360" enable-background="new 0 0 360 360" xml:space="preserve">
<g>
	<path fill="#01426A" d="M2826.9,868.162c-123.188,0-223.312-100.125-223.312-223.312c0-123.187,100.125-223.312,223.312-223.312
		c123.187,0,223.312,100.125,223.312,223.312C3050.212,768.037,2949.975,868.162,2826.9,868.162z M2826.9,442.912
		c-111.375,0-201.938,90.562-201.938,201.938s90.562,201.938,201.938,201.938c111.375,0,201.938-90.562,201.938-201.938
		S2938.162,442.912,2826.9,442.912z"/>
</g>
<g>
	<path fill="#01426A" d="M2754.562,738.112L2883.6,617.625l-2.022,60.075c-0.228,5.175,1.575,9.45,4.726,12.938
		c6.188,6.64,18,8.325,25.986,0.899c3.603-3.375,5.514-7.537,5.625-12.6l3.488-103.39c0.112-4.272-0.113-9.11-4.727-13.95
		c-4.611-4.947-8.662-5.512-13.389-5.625l-103.611-3.485c-5.062-0.227-9.338,1.463-12.938,4.726
		c-7.987,7.425-7.087,19.35-0.898,25.987c3.263,3.487,7.426,5.513,12.601,5.625l60.075,2.022l-129.038,120.488
		c-7.425,6.975-7.763,18.562-0.899,25.987C2735.55,744.638,2747.138,745.088,2754.562,738.112z"/>
</g>
<g>
	<path fill="#01426A" d="M2187.225,866.362c-122.175,0-221.512-99.337-221.512-221.515c0-122.175,99.337-221.512,221.512-221.512
		c122.178,0,221.515,99.337,221.515,221.512C2408.737,767.025,2309.287,866.362,2187.225,866.362z M2187.225,444.6
		c-110.475,0-200.25,89.89-200.25,200.25c0,110.363,89.89,200.25,200.25,200.25c110.478,0,200.25-89.887,200.25-200.25
		C2387.475,534.487,2297.7,444.6,2187.225,444.6z"/>
</g>
<g>
	<path fill="#01426A" d="M2261.925,619.987h-149.513c-13.725,0-24.975,11.138-24.975,24.976c0,13.725,11.138,24.975,24.975,24.975
		h149.513c13.728,0,24.978-11.138,24.978-24.975C2286.9,631.125,2275.763,619.987,2261.925,619.987z"/>
</g>
<path fill="#48850B" d="M181.184,1.535c-73.757,0-133.632,59.229-133.632,133.632c0,78.018,66.826,157.693,115.612,213.834
	c0.123,0.261,7.98,9.026,17.637,9.026c0,0,0.769,0,0.906,0c9.64,0,17.497-8.766,17.637-9.026
	c48.786-56,115.595-135.816,115.595-213.834C314.816,60.764,254.941,1.535,181.184,1.535z M114.377,132.339
	c0-36.827,29.998-66.826,66.806-66.826c36.81,0,66.809,29.999,66.809,66.826c0,36.826-29.999,66.824-66.809,66.824
	C144.375,199.163,114.377,169.166,114.377,132.339z"/>
</svg>
